<svg width="19" height="20" viewBox="0 0 19 20" xmlns="http://www.w3.org/2000/svg">
    <path d="M7.456.213A9.99 9.99 0 0 1 11.547.21a3.993 3.993 0 0 0 1.955 2.862 3.993 3.993 0 0 0 3.457.26 9.99 9.99 0 0 1 2.043 3.546 3.993 3.993 0 0 0-1.5 3.124 3.99 3.99 0 0 0 1.502 3.124 10.043 10.043 0 0 1-2.046 3.543 3.994 3.994 0 0 0-4.76 1.468 3.995 3.995 0 0 0-.65 1.653 9.989 9.989 0 0 1-4.091.004 3.993 3.993 0 0 0-1.955-2.865 3.994 3.994 0 0 0-3.457-.26 9.99 9.99 0 0 1-2.043-3.546 3.992 3.992 0 0 0 1.5-3.122A3.993 3.993 0 0 0 0 6.878a10.043 10.043 0 0 1 2.046-3.543 3.993 3.993 0 0 0 4.76-1.468c.338-.496.56-1.06.65-1.653V.213zm2.046 12.79a3 3 0 1 0 0-6 3 3 0 0 0 0 6z" fill="#FFF" fill-rule="nonzero"/>
</svg>
