<svg width="23" height="20" viewBox="0 0 23 20" xmlns="http://www.w3.org/2000/svg">
    <g fill="#FFF" fill-rule="nonzero">
        <path d="M4 20c0-2.02.803-3.959 2.233-5.388a7.629 7.629 0 0 1 10.784 0A7.616 7.616 0 0 1 19.25 20H4zm7.625-8.571a5.715 5.715 0 1 1 0-11.429 5.715 5.715 0 1 1 0 11.429zm6.018 2.126A7.154 7.154 0 0 1 23 20h-2.843a9.488 9.488 0 0 0-2.514-6.445zm-1.928-2.167a7.6 7.6 0 0 0 2.535-5.674 7.58 7.58 0 0 0-.967-3.717 4.767 4.767 0 0 1 3.827 4.67 4.758 4.758 0 0 1-3.387 4.56 4.769 4.769 0 0 1-2.008.16z"/>
        <path d="M19 20c0-2.02-.803-3.959-2.233-5.388a7.629 7.629 0 0 0-10.784 0A7.616 7.616 0 0 0 3.75 20H19zm-7.625-8.571a5.715 5.715 0 1 0 0-11.429 5.715 5.715 0 1 0 0 11.429zm-6.018 2.126A7.154 7.154 0 0 0 0 20h2.843c0-2.486.953-4.749 2.514-6.445zm1.928-2.167A7.6 7.6 0 0 1 4.75 5.714a7.58 7.58 0 0 1 .967-3.717 4.767 4.767 0 0 0-3.827 4.67 4.758 4.758 0 0 0 3.387 4.56c.65.195 1.335.25 2.008.16z"/>
    </g>
</svg>
