<svg width="20" height="20" viewBox="0 0 20 20" xmlns="http://www.w3.org/2000/svg">
    <path d="M4.455 16.41 0 20V1.026C0 .754.105.493.293.3A.988.988 0 0 1 1 0h18c.265 0 .52.108.707.3.188.193.293.454.293.726v14.359c0 .272-.105.533-.293.725a.988.988 0 0 1-.707.3H4.455zM9 11.282v2.051h2v-2.05H9zm-2.433-5.32 1.962.403c.056-.286.19-.55.385-.76.196-.21.447-.36.722-.43.276-.072.566-.06.835.031.27.092.509.26.689.485a1.574 1.574 0 0 1 .196 1.634 1.526 1.526 0 0 1-.554.641c-.24.156-.518.24-.802.24H9v2.05h1c.663 0 1.312-.193 1.872-.557a3.563 3.563 0 0 0 1.29-1.497 3.671 3.671 0 0 0-.457-3.811A3.5 3.5 0 0 0 11.1 3.259a3.416 3.416 0 0 0-1.948-.075 3.482 3.482 0 0 0-1.684 1.005 3.622 3.622 0 0 0-.9 1.773z" fill="#FFF" fill-rule="nonzero"/>
</svg>
