<svg width="22" height="18" viewBox="0 0 22 18" xmlns="http://www.w3.org/2000/svg">
    <path d="m16 5.85 5.213-4.106a.454.454 0 0 1 .518-.038.53.53 0 0 1 .197.207c.047.088.072.189.072.292v13.59a.616.616 0 0 1-.072.292.53.53 0 0 1-.197.207.454.454 0 0 1-.518-.038L16 12.15v4.725a1.2 1.2 0 0 1-.293.795A.947.947 0 0 1 15 18H1a.947.947 0 0 1-.707-.33A1.2 1.2 0 0 1 0 16.875V1.125A1.2 1.2 0 0 1 .293.33.947.947 0 0 1 1 0h14c.265 0 .52.119.707.33a1.2 1.2 0 0 1 .293.795V5.85z" fill="#FFF" fill-rule="nonzero"/>
</svg>
