<svg xmlns="http://www.w3.org/2000/svg" width="27" height="23" viewBox="0 0 27 23">
    <path data-name="패스 16576" d="M23.673 8.224h0a1.36 1.36 0 0 1-1.223-.734 94.59 94.59 0 0 0-1.22-2.408 2.364 2.364 0 0 0-2.18-1.331h-6.6a2.366 2.366 0 0 0-2.181 1.332c-.3.563-.815 1.6-1.218 2.408a1.361 1.361 0 0 1-1.223.734h0a4.949 4.949 0 0 0-5.078 4.81v7.905a4.95 4.95 0 0 0 5.078 4.81h15.845a4.949 4.949 0 0 0 5.076-4.81v-7.905a4.948 4.948 0 0 0-5.076-4.811z" transform="translate(-2.25 -3.25)" style="fill:none;stroke:#fff;stroke-linecap:round;stroke-linejoin:round;fill-rule:evenodd"/>
    <path data-name="패스 16577" d="M8.821 14.954a4.8 4.8 0 1 0 4.8-4.8 4.813 4.813 0 0 0-4.8 4.8z" transform="translate(-.118 -1.838)" style="fill:none;stroke:#fff;stroke-linecap:round;stroke-linejoin:round;fill-rule:evenodd"/>
</svg>
