<svg width="16" height="16" viewBox="0 0 16 16" xmlns="http://www.w3.org/2000/svg">
    <g fill="#FFF" fill-rule="evenodd">
        <path d="M1.267 2.131 9.65 14H1.652a.654.654 0 0 1-.483-.22.789.789 0 0 1-.2-.53V2.75c0-.199.072-.39.2-.53a.702.702 0 0 1 .098-.089zm9.95-.13c.182 0 .355.078.484.219.128.14.2.331.2.53V5.9l3.561-2.737a.316.316 0 0 1 .354-.026c.056.032.102.08.135.138.032.06.049.126.049.195v9.06a.403.403 0 0 1-.05.195.357.357 0 0 1-.134.138.316.316 0 0 1-.354-.025L11.901 10.1v3.15c0 .199-.072.39-.2.53l-.01.009L3.361 2h7.855z" fill-rule="nonzero"/>
        <path d="M.45.26a.448.448 0 0 1 .626.11L11.309 15.11a.455.455 0 0 1-.112.63.448.448 0 0 1-.626-.11L.338.891A.455.455 0 0 1 .45.261z"/>
    </g>
</svg>
