<svg xmlns="http://www.w3.org/2000/svg" width="40" height="40" viewBox="0 0 40 40">
    <g data-name="그룹 248">
        <path data-name="패스 138" d="m13.729 3.522 1.76 3.549a2.174 2.174 0 0 0 1.42 1.059l3.19.534c2.04.343 2.52 1.835 1.05 3.307l-2.48 2.5a2.2 2.2 0 0 0-.52 1.825l.71 3.1c.56 2.45-.73 3.4-2.88 2.117l-2.99-1.784a2.146 2.146 0 0 0-1.98 0l-2.99 1.784c-2.14 1.28-3.44.323-2.88-2.117l.71-3.1a2.2 2.2 0 0 0-.52-1.825l-2.48-2.5C1.39 10.5 1.86 9.006 3.9 8.663l3.19-.534A2.179 2.179 0 0 0 8.5 7.071l1.76-3.549c.959-1.922 2.519-1.922 3.469 0z" transform="translate(7.999 7.922)" style="stroke-linecap:round;stroke-linejoin:round;stroke-width:1.5px;stroke:#d79aff;fill:none"/>
        <g data-name="타원 33" style="stroke:#d79aff;fill:none">
            <circle cx="20" cy="20" r="20" style="stroke:none"/>
            <circle cx="20" cy="20" r="19.5" style="fill:none"/>
        </g>
    </g>
</svg>
