<?xml version="1.0" encoding="UTF-8"?>
<svg width="30px" height="30px" viewBox="0 0 30 30" version="1.1" xmlns="http://www.w3.org/2000/svg" xmlns:xlink="http://www.w3.org/1999/xlink">
    <title>2F093AB1-9792-4E4C-8638-F686600FC8C4</title>
    <g id="Page-1" stroke="none" stroke-width="1" fill="none" fill-rule="evenodd">
        <g id="서브73" transform="translate(-488.000000, -242.000000)" fill="#FFFFFF" fill-rule="nonzero">
            <path d="M517.734879,270.210676 L511.638066,264.165531 C516.184842,258.895405 515.926502,250.938547 510.914715,245.926761 C508.33132,243.291698 504.869571,242 501.459489,242 C498.049407,242 494.587658,243.291698 491.952595,245.926761 C486.682468,251.196887 486.682468,259.670423 491.952595,264.940549 C494.53599,267.523945 497.997739,268.86731 501.459489,268.86731 C504.559563,268.86731 507.711305,267.782284 510.191365,265.612232 L516.288178,271.709045 C516.443181,271.864049 516.701521,271.967384 516.95986,271.967384 C517.2182,271.967384 517.476539,271.864049 517.683211,271.657377 C518.096554,271.295702 518.096554,270.624019 517.734879,270.210676 Z M493.399296,263.44218 C491.229244,261.323796 490.09255,258.430394 490.09255,255.433655 C490.09255,252.436917 491.280912,249.543514 493.399296,247.373462 C495.569348,245.20341 498.411083,244.066716 501.459489,244.066716 C504.507895,244.066716 507.34963,245.255078 509.519682,247.373462 C511.638066,249.543514 512.826428,252.385249 512.826428,255.433655 C512.826428,258.482061 511.638066,261.323796 509.519682,263.493848 C507.34963,265.612232 504.456227,266.800594 501.459489,266.800594 C498.462751,266.800594 495.569348,265.612232 493.399296,263.44218 Z" id="Shape"></path>
        </g>
    </g>
</svg>