<svg xmlns="http://www.w3.org/2000/svg" width="34" height="24" viewBox="0 0 34 24">
    <g fill="none" fill-rule="evenodd">
        <g fill="#FFF" fill-rule="nonzero">
            <path d="M266.414 494c-1.88 0-3.414 1.478-3.414 3.295v17.406c0 1.818 1.533 3.299 3.414 3.299h27.17c1.882 0 3.416-1.481 3.416-3.299v-17.406c0-1.817-1.534-3.295-3.416-3.295h-27.17zm0 1.172h27.17c1.23 0 2.203.935 2.203 2.123v2.581h-31.574v-2.58c0-1.19.971-2.124 2.201-2.124zm-2.201 5.877h31.574v2.919h-31.574v-2.919zm0 4.09h31.574v9.562c0 1.189-.972 2.127-2.203 2.127h-27.17c-1.23 0-2.201-.938-2.201-2.127v-9.561zm3.71 3.867c-.22-.005-.425.106-.536.289-.112.183-.112.41 0 .593.111.183.316.294.536.29h7.632c.33-.008.593-.268.593-.586 0-.319-.264-.58-.593-.586h-7.632zm0 3.166c-.22-.005-.425.106-.536.289-.112.183-.112.41 0 .593.111.183.316.294.536.29h3.26c.22.004.424-.107.536-.29.111-.183.111-.41 0-.593-.112-.183-.317-.294-.537-.29h-3.259z" transform="translate(-263 -494)"/>
        </g>
    </g>
</svg>
