<?xml version="1.0" encoding="UTF-8"?>
<svg width="50px" height="50px" viewBox="0 0 50 50" version="1.1" xmlns="http://www.w3.org/2000/svg" xmlns:xlink="http://www.w3.org/1999/xlink">
    <title>92C1C716-DAB1-4172-B19B-0E10A4C9BF31</title>
    <g id="Page-1" stroke="none" stroke-width="1" fill="none" fill-rule="evenodd" fill-opacity="0.375846809">
        <g id="서브76" transform="translate(-1009.000000, -411.000000)" fill="#FFFFFF" fill-rule="nonzero">
            <path d="M1034,461 C1020.19288,461 1009,449.807119 1009,436 C1009,422.192881 1020.19288,411 1034,411 C1047.80712,411 1059,422.192881 1059,436 C1059,442.630412 1056.36608,448.98926 1051.67767,453.67767 C1046.98926,458.366079 1040.63041,461 1034,461 Z M1034,414.658537 C1022.21344,414.658537 1012.65854,424.213435 1012.65854,436 C1012.65854,447.786565 1022.21344,457.341463 1034,457.341463 C1045.78656,457.341463 1055.34146,447.786565 1055.34146,436 C1055.34146,424.213435 1045.78656,414.658537 1034,414.658537 Z" id="Shape"></path>
        </g>
    </g>
</svg>