<svg xmlns="http://www.w3.org/2000/svg" width="28" height="29" viewBox="0 0 28 29">
    <g fill="none" fill-rule="evenodd">
        <g>
            <g transform="translate(-1365 -16) translate(1365 16)">
                <g fill="#FFF" fill-rule="nonzero" transform="translate(2 6)">
                    <path d="M17.04 9.134c-.062.077-.155.129-.247.206-1.29 1.079-2.98 1.67-4.793 1.67-1.813 0-3.503-.591-4.793-1.67l-.246-.206c-2.888 1.182-5.229 3.65-6.089 6.296C2.193 19.464 6.746 22.134 12 22.134c5.254 0 9.648-2.67 11-6.704-.86-2.646-3.073-5.114-5.96-6.296z"/>
                    <circle cx="12" cy="5" r="5"/>
                </g>
                <circle cx="14" cy="14" r="13.5" stroke="#FFF"/>
            </g>
        </g>
    </g>
</svg>
