<?xml version="1.0" encoding="UTF-8"?>
<svg width="78px" height="76px" viewBox="0 0 78 76" version="1.1" xmlns="http://www.w3.org/2000/svg" xmlns:xlink="http://www.w3.org/1999/xlink">
    <title>DC93B00E-4ED8-4D75-83FD-DBED206D7C63</title>
    <g id="Page-1" stroke="none" stroke-width="1" fill="none" fill-rule="evenodd">
        <g id="서브81" transform="translate(-681.000000, -285.000000)" fill-rule="nonzero">
            <g id="Group-2" transform="translate(682.000000, 286.000000)">
                <path d="M49.9559851,25.447191 C53.1288117,22.0610657 53.159915,16.8030782 50.0273699,13.3796538 C46.8948247,9.95622949 41.6547434,9.52154815 38.0009289,12.3820225 C34.3471145,9.52154815 29.1070332,9.95622949 25.974488,13.3796538 C22.8419429,16.8030782 22.8730462,22.0610657 26.0458728,25.447191 L37.4031761,36.8044944 C37.7352223,37.1299647 38.2666356,37.1299647 38.5986818,36.8044944 L49.9559851,25.447191 Z M27.2413784,24.2516854 C24.7837407,21.3978516 24.9517384,17.1293261 27.6260652,14.4774727 C30.300392,11.8256192 34.5701831,11.6936482 37.4031761,14.1752809 C37.5608381,14.336174 37.7756878,14.4282524 38.0009289,14.4314607 L38.0009289,14.4314607 C38.2261701,14.4282524 38.4410198,14.336174 38.5986818,14.1752809 C41.4316748,11.6936482 45.7014659,11.8256192 48.3757927,14.4774727 C51.0501195,17.1293261 51.2181172,21.3978516 48.7604795,24.2516854 L38.0009289,35.011236 L27.2413784,24.2516854 Z" id="Shape" stroke="#FFCC2A" fill="#FFCC2A"></path>
                <path d="M0.000443349706,26.0449438 L0.000443349706,73.4382022 C0.000443349706,73.9098162 0.383247588,74.2921348 0.854861532,74.2921348 L75.1469964,74.2921348 C75.6186103,74.2921348 76.0014145,73.9098162 76.0014145,73.4382022 L76.0014145,26.0449438 C76.0115473,25.7295507 75.8473589,25.4340117 75.5739627,25.2764045 L75.5739627,25.2764045 L63.9604795,19.8966292 L63.9604795,0.853932584 C63.9604795,0.382318641 63.5781609,0 63.1065469,0 L12.895311,0 C12.423697,0 12.0413784,0.382318641 12.0413784,0.853932584 L12.0413784,19.9820225 L0.42789524,25.2764045 L0.42789524,25.2764045 C0.154498949,25.4340117 -0.00968938617,25.7295507 0.000443349706,26.0449438 Z M64.0458728,21.7752809 L73.4391312,26.1303371 L64.0458728,31.8516854 L64.0458728,21.7752809 Z M13.7492436,1.70786517 L62.2526143,1.70786517 L62.2526143,32.8764045 L38.0009289,47.7348315 L13.7492436,32.8764045 L13.7492436,1.70786517 Z M12.0413784,21.8606742 L12.0413784,31.8516854 L2.64811996,26.1303371 L12.0413784,21.8606742 Z M1.70879412,27.5820225 L37.5739627,49.4426966 C37.8381703,49.595237 38.1636876,49.595237 38.4278952,49.4426966 L74.2930638,27.5820225 L74.2930638,72.5842697 L1.70879412,72.5842697 L1.70879412,27.5820225 Z" id="Shape" stroke="#FFFFFF" fill="#FFFFFF"></path>
            </g>
        </g>
    </g>
</svg>