<?xml version="1.0" encoding="UTF-8"?>
<svg width="42px" height="39px" viewBox="0 0 42 39" version="1.1" xmlns="http://www.w3.org/2000/svg" xmlns:xlink="http://www.w3.org/1999/xlink">
    <title>58962F2D-6A3B-4A46-B3A0-1D0B3A4ABAB6</title>
    <g id="Page-1" stroke="none" stroke-width="1" fill="none" fill-rule="evenodd">
        <g id="서브79" transform="translate(-1161.000000, -370.000000)" fill="#BBFF00" fill-rule="nonzero" stroke="#BBFF00" stroke-width="0.4">
            <path d="M1201.55485,386.019898 C1201.62155,386.019898 1201.62155,385.953204 1201.55485,386.019898 C1202.68865,380.75108 1201.62155,376.282589 1198.75371,373.681527 C1196.48612,371.614016 1193.15142,370.680301 1189.95011,371.213852 C1186.68211,371.68071 1183.94766,373.614833 1182.01354,376.549364 C1180.07942,373.614833 1177.34497,371.68071 1174.14366,371.147159 C1170.87566,370.613607 1167.54096,371.547322 1165.27337,373.681527 C1162.40553,376.282589 1161.33843,380.75108 1162.40553,385.953204 C1162.47223,386.286674 1162.739,386.486755 1163.07247,386.486755 C1163.07247,386.486755 1163.13917,386.486755 1163.13917,386.486755 C1163.33925,386.486755 1163.47264,386.420062 1163.60602,386.286674 L1165.94031,383.952387 C1166.007,383.952387 1166.007,383.885693 1166.007,383.818999 C1166.27378,383.618918 1166.54055,383.552224 1166.87402,383.552224 C1167.20749,383.552224 1167.54096,383.685612 1167.74104,383.952387 C1168.00782,384.219163 1168.14121,384.552632 1168.14121,384.952796 C1168.14121,385.286265 1168.00782,385.619735 1167.74104,385.819816 C1167.67435,385.88651 1167.60766,385.953204 1167.54096,386.086592 L1164.00619,389.688063 C1163.73941,389.954838 1163.73941,390.355002 1164.00619,390.621777 C1164.13957,390.755165 1164.27296,390.821859 1164.47304,390.821859 C1164.67313,390.821859 1164.80651,390.755165 1164.9399,390.621777 L1168.74145,386.753531 L1171.07574,384.419245 C1171.34252,384.152469 1171.67598,384.019081 1172.07615,384.019081 C1172.40962,384.019081 1172.74309,384.152469 1172.94317,384.419245 C1173.20994,384.68602 1173.34333,385.01949 1173.34333,385.419653 C1173.34333,385.753123 1173.20994,386.086592 1172.94317,386.286674 C1172.87648,386.353368 1172.80978,386.420062 1172.80978,386.553449 L1172.07615,387.353776 L1165.87362,393.489615 C1165.60684,393.756391 1165.60684,394.156554 1165.87362,394.42333 C1166.007,394.556717 1166.20709,394.623411 1166.34047,394.623411 C1166.54055,394.623411 1166.67394,394.556717 1166.80733,394.42333 L1173.00986,388.287491 C1173.00986,388.287491 1173.00986,388.287491 1173.00986,388.287491 C1173.54341,387.75394 1174.41043,387.820633 1174.87729,388.287491 C1175.14407,388.554266 1175.27746,388.887736 1175.27746,389.287899 C1175.27746,389.621369 1175.14407,389.954838 1174.87729,390.15492 C1174.87729,390.15492 1174.87729,390.15492 1174.87729,390.15492 C1174.87729,390.15492 1174.87729,390.15492 1174.87729,390.15492 L1173.47672,391.555492 C1173.47672,391.555492 1173.47672,391.555492 1173.47672,391.555492 C1173.47672,391.555492 1173.47672,391.555492 1173.47672,391.555492 L1168.2746,396.757616 C1168.00782,397.024392 1168.00782,397.424555 1168.2746,397.691331 C1168.40798,397.824718 1168.60807,397.891412 1168.74145,397.891412 C1168.87484,397.891412 1169.07492,397.824718 1169.20831,397.691331 L1174.41043,392.489206 C1174.41043,392.489206 1174.41043,392.489206 1174.41043,392.489206 C1174.7439,392.155737 1175.27746,392.022349 1175.67762,392.155737 C1176.14448,392.289125 1176.54464,392.689288 1176.61133,393.089452 C1176.74472,393.556309 1176.61133,394.023166 1176.27786,394.356636 C1176.21117,394.42333 1176.14448,394.490023 1176.14448,394.556717 L1171.07574,399.625454 C1170.80896,399.892229 1170.80896,400.292393 1171.07574,400.559168 C1171.14243,400.625862 1171.27582,400.692556 1171.40921,400.75925 C1174.47713,403.560394 1177.81182,406.028068 1181.68007,408.362355 C1181.74676,408.362355 1181.88015,408.362355 1182.01354,408.362355 C1182.14693,408.362355 1182.28031,408.362355 1182.34701,408.295661 C1186.28195,405.89468 1189.75003,403.360312 1192.88464,400.492474 C1192.88464,400.492474 1192.88464,400.492474 1192.88464,400.492474 C1192.88464,400.492474 1192.88464,400.492474 1192.88464,400.492474 C1192.88464,400.492474 1192.95134,400.425781 1192.95134,400.425781 C1192.95134,400.359087 1193.01803,400.359087 1193.01803,400.292393 C1193.01803,400.225699 1193.01803,400.225699 1193.01803,400.159005 C1193.01803,400.092311 1193.01803,400.092311 1193.01803,400.025617 C1193.01803,399.958923 1193.01803,399.958923 1193.01803,399.892229 C1193.01803,399.825535 1193.01803,399.825535 1193.01803,399.758842 C1193.01803,399.692148 1192.95134,399.692148 1192.95134,399.625454 C1192.95134,399.55876 1192.88464,399.55876 1192.88464,399.492066 C1192.88464,399.492066 1192.88464,399.492066 1192.88464,399.492066 C1192.88464,399.492066 1192.88464,399.492066 1192.88464,399.492066 L1187.74921,394.356636 C1187.74921,394.356636 1187.74921,394.356636 1187.74921,394.356636 C1187.41575,394.023166 1187.28236,393.489615 1187.41575,393.089452 C1187.54913,392.622594 1187.9493,392.222431 1188.34946,392.155737 C1188.81632,392.022349 1189.28317,392.155737 1189.61664,392.489206 C1189.68334,392.5559 1189.75003,392.622594 1189.81673,392.622594 L1194.75207,397.624637 C1194.88546,397.758025 1195.08554,397.824718 1195.21893,397.824718 C1195.41901,397.824718 1195.5524,397.758025 1195.68579,397.624637 C1195.95256,397.357861 1195.95256,396.957698 1195.68579,396.690922 L1190.55036,391.488798 L1189.14979,390.088226 C1188.61624,389.554675 1188.68293,388.687654 1189.14979,388.220797 C1189.41656,387.954021 1189.75003,387.820633 1190.1502,387.820633 C1190.48366,387.820633 1190.81713,387.954021 1191.01722,388.154103 C1191.01722,388.154103 1191.01722,388.154103 1191.01722,388.154103 L1191.01722,388.154103 L1197.21975,394.289942 C1197.35314,394.42333 1197.48652,394.490023 1197.68661,394.490023 C1197.88669,394.490023 1198.02008,394.42333 1198.15346,394.289942 C1198.42024,394.023166 1198.42024,393.623003 1198.15346,393.356227 L1191.95093,387.220388 L1191.01722,386.21998 C1191.01722,386.153286 1190.95052,386.153286 1190.88383,386.153286 C1190.48366,385.619735 1190.55036,384.886102 1191.01722,384.419245 C1191.55077,383.885693 1192.21771,383.885693 1192.81795,384.285857 C1192.81795,384.352551 1192.88464,384.352551 1192.88464,384.419245 L1194.95216,386.486755 C1195.01885,386.553449 1195.01885,386.620143 1195.08554,386.686837 L1195.15224,386.753531 C1195.21893,386.820225 1195.28563,386.886919 1195.35232,386.886919 L1199.02048,390.555083 C1199.15387,390.688471 1199.35395,390.755165 1199.48734,390.755165 C1199.62073,390.755165 1199.82081,390.688471 1199.9542,390.555083 C1200.22097,390.288308 1200.22097,389.888144 1199.9542,389.621369 L1195.88587,385.553041 C1195.5524,385.01949 1195.68579,384.352551 1196.15265,383.885693 C1196.75289,383.285448 1197.55322,383.48553 1198.02008,383.885693 C1198.08677,383.952387 1198.15346,383.952387 1198.22016,384.019081 L1200.42106,386.21998 C1200.42106,386.21998 1200.42106,386.21998 1200.48775,386.21998 C1200.55444,386.21998 1200.55444,386.286674 1200.62114,386.286674 C1200.68783,386.286674 1200.68783,386.353368 1200.75453,386.353368 C1200.75453,386.353368 1200.82122,386.353368 1200.82122,386.353368 C1200.88791,386.353368 1200.88791,386.353368 1200.95461,386.353368 C1200.95461,386.353368 1200.95461,386.353368 1200.95461,386.353368 C1200.95461,386.353368 1200.95461,386.353368 1200.95461,386.353368 C1200.95461,386.353368 1200.95461,386.353368 1200.95461,386.353368 C1201.0213,386.353368 1201.08799,386.353368 1201.22138,386.286674 C1201.22138,386.286674 1201.28808,386.286674 1201.28808,386.21998 C1201.35477,386.21998 1201.42146,386.153286 1201.42146,386.153286 C1201.42146,386.153286 1201.42146,386.153286 1201.42146,386.153286 C1201.42146,386.153286 1201.42146,386.086592 1201.42146,386.086592 C1201.48816,386.019898 1201.48816,386.019898 1201.48816,385.953204 C1201.55485,386.086592 1201.55485,386.019898 1201.55485,386.019898 Z M1195.28563,383.018673 C1194.95216,383.352142 1194.68538,383.818999 1194.55199,384.219163 L1194.01844,383.685612 C1193.95175,383.618918 1193.95175,383.552224 1193.88505,383.48553 C1192.81795,382.485121 1191.2173,382.551815 1190.1502,383.552224 C1189.34987,384.352551 1189.14979,385.553041 1189.61664,386.553449 C1189.08309,386.686837 1188.61624,386.886919 1188.21607,387.287082 C1187.21566,388.287491 1187.21566,389.82145 1188.08268,390.821859 C1188.08268,390.821859 1188.08268,390.821859 1188.08268,390.821859 C1187.21566,391.021941 1186.48203,391.755574 1186.14856,392.689288 C1185.88179,393.556309 1186.14856,394.490023 1186.74881,395.156962 C1186.74881,395.156962 1186.74881,395.156962 1186.74881,395.223656 L1186.8155,395.29035 C1186.8155,395.29035 1186.8155,395.29035 1186.8155,395.29035 C1186.8155,395.29035 1186.8155,395.29035 1186.8155,395.29035 L1191.41738,399.892229 C1188.61624,402.426598 1185.48162,404.69419 1182.01354,406.895089 C1178.47876,404.760884 1175.41084,402.426598 1172.6097,399.892229 L1177.27827,395.223656 C1177.34497,395.156962 1177.41166,395.090269 1177.41166,395.023575 C1178.01191,394.356636 1178.21199,393.422921 1178.01191,392.622594 C1177.81182,391.755574 1177.07819,391.021941 1176.14448,390.688471 C1176.14448,390.688471 1176.14448,390.688471 1176.14448,390.688471 C1176.47795,390.288308 1176.67803,389.754757 1176.74472,389.154511 C1176.74472,388.420879 1176.47795,387.75394 1175.94439,387.220388 C1175.54423,386.820225 1175.01068,386.553449 1174.54382,386.486755 C1174.7439,386.153286 1174.8106,385.753123 1174.8106,385.352959 C1174.8106,384.619326 1174.54382,383.952387 1174.01027,383.418836 C1173.54341,382.885285 1172.87648,382.618509 1172.20954,382.618509 C1171.4759,382.618509 1170.80896,382.885285 1170.27541,383.418836 L1169.54178,384.219163 C1169.40839,383.752306 1169.20831,383.352142 1168.87484,383.018673 C1168.40798,382.485121 1167.74104,382.218346 1167.07411,382.218346 C1166.34047,382.218346 1165.67353,382.485121 1165.13998,383.018673 C1165.07329,383.085367 1165.07329,383.15206 1165.00659,383.218754 L1163.73941,384.485938 C1163.13917,380.284223 1164.07288,376.749446 1166.40717,374.615241 C1168.34129,372.814506 1171.34252,372.014179 1174.14366,372.481037 C1177.0115,373.014588 1179.67925,375.015405 1181.41329,378.216712 C1181.68007,378.616875 1182.34701,378.616875 1182.61378,378.216712 C1184.34783,375.015405 1187.01558,373.014588 1190.1502,372.481037 C1192.95134,372.014179 1195.88587,372.814506 1197.88669,374.615241 C1200.22097,376.682752 1201.15469,380.217529 1200.55444,384.419245 L1199.08718,383.018673 C1199.02048,382.951979 1198.8871,382.885285 1198.8204,382.885285 C1197.7533,382.018264 1196.21934,382.018264 1195.28563,383.018673 Z" id="Shape"></path>
        </g>
    </g>
</svg>