<?xml version="1.0" encoding="UTF-8"?>
<svg width="12px" height="20px" viewBox="0 0 12 20" version="1.1" xmlns="http://www.w3.org/2000/svg" xmlns:xlink="http://www.w3.org/1999/xlink">
    <title>A89342E1-85AD-4813-8B47-5466F516190D</title>
    <g id="Page-1" stroke="none" stroke-width="1" fill="none" fill-rule="evenodd">
        <g id="서브77" transform="translate(-325.000000, -137.000000)" fill="#FFCC2A" fill-rule="nonzero" stroke="#FFCC2A">
            <g id="Group-Copy-3" transform="translate(331.000000, 147.000000) scale(-1, 1) translate(-331.000000, -147.000000) translate(326.000000, 138.000000)">
                <path d="M9.76896929,8.94262306 C9.75152036,8.7586653 9.67075827,8.58452532 9.53831452,8.44528308 L1.91925976,0.378731153 C1.69981606,0.131421376 1.35054196,0.0133820819 1.00824919,0.0708496304 C0.665956425,0.128317179 0.385137831,0.352142766 0.275790925,0.654653214 C0.166444018,0.957163661 0.24597677,1.29019947 0.483235952,1.52330947 L7.55914786,9.01757659 L0.483235952,16.5118394 C0.24597677,16.7449494 0.166444018,17.0779852 0.275790925,17.3804956 C0.385137831,17.6830061 0.665956425,17.9068316 1.00824919,17.9642992 C1.35054196,18.0217667 1.69981606,17.9037274 1.91925976,17.6564177 L9.53831452,9.58986575 C9.70778872,9.41164159 9.79102402,9.17807418 9.76896929,8.94262306 L9.76896929,8.94262306 Z" id="Path"></path>
            </g>
        </g>
    </g>
</svg>