<?xml version="1.0" encoding="UTF-8"?>
<svg width="26px" height="26px" viewBox="0 0 26 26" version="1.1" xmlns="http://www.w3.org/2000/svg" xmlns:xlink="http://www.w3.org/1999/xlink">
    <title>158A54DD-760A-4746-B7AB-35A628745E6A</title>
    <g id="Page-1" stroke="none" stroke-width="1" fill="none" fill-rule="evenodd">
        <g id="서브85" transform="translate(-666.000000, -845.000000)" fill="#222222" fill-rule="nonzero" stroke="#222222" stroke-width="0.5">
            <path d="M679,870 C672.372583,870 667,864.627417 667,858 C667,851.372583 672.372583,846 679,846 C685.627417,846 691,851.372583 691,858 C690.993281,864.624632 685.624632,869.993281 679,870 Z M679,847.22194 C674.639172,847.22194 670.707796,849.849003 669.039265,853.878 C667.370733,857.906998 668.293677,862.544383 671.377684,865.627519 C674.461691,868.710654 679.099337,869.632287 683.127863,867.962617 C687.156389,866.292946 689.78234,862.360828 689.781108,858 C689.776064,852.048342 684.951659,847.2253 679,847.22194 Z M678.250381,861.022854 L683.430675,855.84256 C683.668811,855.604424 683.668811,855.218329 683.430675,854.980193 C683.192539,854.742057 682.806445,854.742057 682.568309,854.980193 L677.820721,859.730828 L675.428644,857.335703 C675.190508,857.097567 674.804413,857.097567 674.566277,857.335703 C674.328141,857.573839 674.328141,857.959934 674.566277,858.19807 L677.388014,861.022854 C677.503028,861.136934 677.658729,861.20053 677.820721,861.199604 C677.981659,861.199722 678.136115,861.136187 678.250381,861.022854 Z" id="Shape"></path>
        </g>
    </g>
</svg>