<svg xmlns="http://www.w3.org/2000/svg" width="17" height="19" viewBox="0 0 17 19">
    <g fill="none" fill-rule="evenodd">
        <g fill="#FFF" fill-rule="nonzero">
            <g>
                <path d="M0 .308v12.554c0 .04.007.078.02.115.007.014.014.027.023.04.008.018.018.035.029.051l3.433 4.123c.053.064.128.1.207.101h11.82c.155 0 .28-.137.28-.307V.308c0-.17-.125-.308-.28-.308H.282C.125 0 0 .138 0 .308zm3.447 15.896L.927 13.17h2.52v3.035zM15.252.615v16.062H4.01v-3.815c0-.17-.126-.308-.282-.308H.563V.615h14.69z" transform="translate(-359 -884) translate(359.88 884.88)"/>
                <path d="M2.77 3.692h5.075c.17 0 .308-.137.308-.307 0-.17-.138-.308-.308-.308H2.769c-.17 0-.307.138-.307.308 0 .17.137.307.307.307zM2.77 6.092h10.645c.17 0 .308-.137.308-.307 0-.17-.138-.308-.308-.308H2.77c-.17 0-.307.138-.307.308 0 .17.137.307.307.307zM2.77 8.492h8.307c.17 0 .308-.137.308-.307 0-.17-.138-.308-.308-.308H2.769c-.17 0-.307.138-.307.308 0 .17.137.307.307.307z" transform="translate(-359 -884) translate(359.88 884.88)"/>
            </g>
        </g>
    </g>
</svg>
