<svg xmlns="http://www.w3.org/2000/svg" width="26" height="26" viewBox="0 0 26 26">
    <g fill="none" fill-rule="evenodd">
        <g fill="#D92424" fill-rule="nonzero">
            <path d="M246.964 243.964c4.881-4.881 4.881-12.797 0-17.678s-12.797-4.881-17.678 0-4.881 12.797 0 17.678 12.797 4.881 17.678 0zm-15.673-15.673c3.773-3.773 9.921-3.773 13.694 0 3.773 3.773 3.773 9.921 0 13.694-3.773 3.773-9.92 3.773-13.694 0-3.8-3.8-3.8-9.92 0-13.694zm5.304 1.557c-.027-.264.026-.528.132-.765.316-.686 1.055-1.056 1.794-.87.712.184 1.187.87 1.134 1.635l-.079 1.478c-.105 1.846-.21 3.693-.29 5.514-.026.607-.528 1.082-1.135 1.082-.633 0-1.108-.475-1.134-1.135-.027-.37-.027-.739-.053-1.108-.08-1.187-.132-2.375-.211-3.588-.053-.713-.106-1.478-.158-2.243zm0 10.712c0-.844.686-1.556 1.53-1.556s1.53.686 1.557 1.53c0 .844-.686 1.53-1.53 1.53-.845.027-1.557-.66-1.557-1.504z" transform="translate(-225 -222)"/>
        </g>
    </g>
</svg>
