<?xml version="1.0" encoding="UTF-8"?>
<svg width="26px" height="26px" viewBox="0 0 26 26" version="1.1" xmlns="http://www.w3.org/2000/svg" xmlns:xlink="http://www.w3.org/1999/xlink">
    <title>FC50C46C-ED53-4D9F-ABAD-1612AEB33D00</title>
    <g id="Page-1" stroke="none" stroke-width="1" fill="none" fill-rule="evenodd">
        <g id="서브85" transform="translate(-235.000000, -845.000000)" fill="#FFCC2A" fill-rule="nonzero" stroke="#FFCC2A" stroke-width="0.5">
            <path d="M248,870 C241.372583,870 236,864.627417 236,858 C236,851.372583 241.372583,846 248,846 C254.627417,846 260,851.372583 260,858 C259.993281,864.624632 254.624632,869.993281 248,870 Z M248,847.22194 C243.639172,847.22194 239.707796,849.849003 238.039265,853.878 C236.370733,857.906998 237.293677,862.544383 240.377684,865.627519 C243.461691,868.710654 248.099337,869.632287 252.127863,867.962617 C256.156389,866.292946 258.78234,862.360828 258.781108,858 C258.776064,852.048342 253.951659,847.2253 248,847.22194 Z M247.250381,861.022854 L252.430675,855.84256 C252.668811,855.604424 252.668811,855.218329 252.430675,854.980193 C252.192539,854.742057 251.806445,854.742057 251.568309,854.980193 L246.820721,859.730828 L244.428644,857.335703 C244.190508,857.097567 243.804413,857.097567 243.566277,857.335703 C243.328141,857.573839 243.328141,857.959934 243.566277,858.19807 L246.388014,861.022854 C246.503028,861.136934 246.658729,861.20053 246.820721,861.199604 C246.981659,861.199722 247.136115,861.136187 247.250381,861.022854 Z" id="Shape"></path>
        </g>
    </g>
</svg>