<?xml version="1.0" encoding="UTF-8"?>
<svg xmlns="http://www.w3.org/2000/svg" xmlns:xlink="http://www.w3.org/1999/xlink" viewBox="0 0 96 96" width="96px" height="96px">
<g id="surface73056">
<path style=" stroke:none;fill-rule:nonzero;fill:rgb(100%,100%,100%);fill-opacity:1;" d="M 48 8 C 44.847656 8 41.804688 8.398438 38.902344 9.074219 C 37.660156 9.363281 36.738281 10.40625 36.601562 11.671875 L 35.964844 17.476562 C 35.757812 19.378906 34.65625 21.0625 33 22.019531 C 31.34375 22.976562 29.335938 23.082031 27.585938 22.3125 L 27.582031 22.3125 L 22.25 19.964844 C 21.085938 19.453125 19.722656 19.730469 18.851562 20.660156 C 14.707031 25.078125 11.523438 30.429688 9.71875 36.402344 C 9.351562 37.621094 9.789062 38.9375 10.816406 39.691406 L 15.546875 43.160156 C 17.089844 44.296875 18 46.085938 18 48 C 18 49.914062 17.089844 51.707031 15.546875 52.839844 L 10.816406 56.304688 C 9.789062 57.058594 9.351562 58.375 9.71875 59.59375 C 11.523438 65.566406 14.703125 70.921875 18.851562 75.339844 C 19.722656 76.269531 21.085938 76.546875 22.25 76.03125 L 27.582031 73.683594 C 29.335938 72.914062 31.34375 73.023438 33 73.980469 C 34.65625 74.9375 35.757812 76.621094 35.964844 78.523438 L 36.601562 84.328125 C 36.738281 85.59375 37.660156 86.632812 38.898438 86.921875 C 41.804688 87.601562 44.847656 88 48 88 C 51.152344 88 54.195312 87.601562 57.097656 86.925781 C 58.339844 86.636719 59.261719 85.59375 59.398438 84.328125 L 60.035156 78.523438 C 60.242188 76.621094 61.34375 74.9375 63 73.980469 C 64.65625 73.023438 66.664062 72.914062 68.414062 73.683594 L 73.75 76.03125 C 74.914062 76.546875 76.277344 76.269531 77.148438 75.339844 C 81.292969 70.921875 84.476562 65.566406 86.28125 59.59375 C 86.648438 58.375 86.210938 57.058594 85.183594 56.304688 L 80.453125 52.839844 C 78.910156 51.707031 78 49.914062 78 48 C 78 46.085938 78.910156 44.292969 80.453125 43.160156 L 85.183594 39.695312 C 86.210938 38.941406 86.648438 37.625 86.28125 36.40625 C 84.476562 30.433594 81.292969 25.078125 77.148438 20.660156 C 76.277344 19.730469 74.914062 19.453125 73.75 19.96875 L 68.414062 22.316406 C 66.664062 23.085938 64.65625 22.976562 63 22.019531 C 61.34375 21.0625 60.242188 19.378906 60.035156 17.476562 L 59.398438 11.671875 C 59.261719 10.40625 58.339844 9.367188 57.101562 9.078125 C 54.195312 8.398438 51.152344 8 48 8 Z M 48 14 C 49.949219 14 51.820312 14.351562 53.695312 14.679688 L 54.070312 18.128906 C 54.484375 21.925781 56.695312 25.304688 60 27.214844 C 63.308594 29.125 67.335938 29.347656 70.832031 27.808594 L 74.003906 26.414062 C 76.441406 29.339844 78.367188 32.640625 79.714844 36.261719 L 76.902344 38.324219 C 73.824219 40.582031 72 44.179688 72 48 C 72 51.820312 73.824219 55.417969 76.902344 57.675781 L 79.714844 59.738281 C 78.367188 63.359375 76.441406 66.660156 74.003906 69.585938 L 70.832031 68.191406 C 67.335938 66.652344 63.308594 66.875 60 68.785156 C 56.695312 70.695312 54.484375 74.074219 54.070312 77.871094 L 53.695312 81.320312 C 51.820312 81.648438 49.949219 82 48 82 C 46.050781 82 44.179688 81.648438 42.304688 81.320312 L 41.929688 77.871094 C 41.515625 74.074219 39.304688 70.695312 36 68.785156 C 32.691406 66.875 28.664062 66.652344 25.167969 68.191406 L 21.996094 69.585938 C 19.558594 66.660156 17.632812 63.359375 16.285156 59.738281 L 19.097656 57.675781 C 22.175781 55.417969 24 51.820312 24 48 C 24 44.179688 22.175781 40.582031 19.097656 38.320312 L 16.285156 36.257812 C 17.632812 32.636719 19.5625 29.335938 22 26.410156 L 25.167969 27.804688 C 28.664062 29.34375 32.691406 29.125 36 27.214844 C 39.304688 25.304688 41.515625 21.925781 41.929688 18.128906 L 42.304688 14.679688 C 44.179688 14.351562 46.050781 14 48 14 Z M 48 32 C 39.199219 32 32 39.199219 32 48 C 32 56.800781 39.199219 64 48 64 C 56.800781 64 64 56.800781 64 48 C 64 39.199219 56.800781 32 48 32 Z M 48 38 C 53.558594 38 58 42.441406 58 48 C 58 53.558594 53.558594 58 48 58 C 42.441406 58 38 53.558594 38 48 C 38 42.441406 42.441406 38 48 38 Z M 48 38 "/>
</g>
</svg>
