<?xml version="1.0" encoding="UTF-8"?>
<svg width="50px" height="50px" viewBox="0 0 50 50" version="1.1" xmlns="http://www.w3.org/2000/svg" xmlns:xlink="http://www.w3.org/1999/xlink">
    <title>1F4A2B9E-4F6B-4703-94D3-8AF50E144A55</title>
    <g id="Page-1" stroke="none" stroke-width="1" fill="none" fill-rule="evenodd">
        <g id="서브76" transform="translate(-1009.000000, -249.000000)" fill="#FFFFFF" fill-rule="nonzero">
            <g id="Group-2" transform="translate(1009.000000, 249.000000)">
                <path d="M25,50 C11.1928813,50 0,38.8071187 0,25 C0,11.1928813 11.1928813,0 25,0 C38.8071187,0 50,11.1928813 50,25 C50,31.6304122 47.366079,37.9892601 42.6776695,42.6776695 C37.9892601,47.366079 31.6304122,50 25,50 Z M25,3.65853659 C13.2134352,3.65853659 3.65853659,13.2134352 3.65853659,25 C3.65853659,36.7865648 13.2134352,46.3414634 25,46.3414634 C36.7865648,46.3414634 46.3414634,36.7865648 46.3414634,25 C46.3414634,13.2134352 36.7865648,3.65853659 25,3.65853659 Z" id="Shape"></path>
                <path d="M21.1829268,36.4329268 C20.7308644,36.4285688 20.2964284,36.2569666 19.9634146,35.9512195 L12.195122,28.7865854 C11.6234367,28.3768701 11.3372875,27.675669 11.4590878,26.982953 C11.5808881,26.2902371 12.0890644,25.7287024 12.7662208,25.5385711 C13.4433772,25.3484399 14.1695737,25.5633887 14.6341463,26.0914634 L20.9817073,31.945122 L33.902439,16.2926829 C34.5456487,15.5130859 35.6990614,15.4025221 36.4786585,16.0457318 C37.2582555,16.6889414 37.3688194,17.8423541 36.7256098,18.6219512 L22.5914634,35.7682927 C22.2722849,36.1573837 21.8069063,36.3977926 21.304878,36.4329268 L21.1829268,36.4329268 Z" id="Path"></path>
            </g>
        </g>
    </g>
</svg>