<svg xmlns="http://www.w3.org/2000/svg" width="14" height="16" viewBox="0 0 14 16">
    <path data-name="패스 8" d="M6.44 1.25h5.62c2.663 0 4.19 1.583 4.19 4.343v7.314c0 2.76-1.527 4.343-4.19 4.343H6.44c-2.663 0-4.19-1.583-4.19-4.343V5.593c0-2.76 1.527-4.343 4.19-4.343zm5.62 14.629c1.908 0 2.835-.972 2.835-2.971V5.593c0-2-.927-2.971-2.835-2.971H6.44c-1.908 0-2.835.972-2.835 2.971v7.314c0 2 .927 2.971 2.835 2.971z" transform="translate(-2.25 -1.25)" style="fill:#fff"/>
    <path data-name="패스 9" d="M8.436 1.25h5.12a.686.686 0 0 1 .686.686v5.749a1.053 1.053 0 0 1-1.761.779L11 7.094 9.515 8.459a1.053 1.053 0 0 1-1.765-.774V1.936a.686.686 0 0 1 .686-.686zm4.434 1.371H9.121v4.336l1.158-1.068a1.048 1.048 0 0 1 1.432 0l1.159 1.068z" transform="translate(-3.996 -1.25)" style="fill:#fff"/>
    <path data-name="패스 10" d="M16.294 14.621h-3.108a.686.686 0 0 1 0-1.371h3.109a.686.686 0 1 1 0 1.371z" transform="translate(-5.403 -4.473)" style="fill:#fff"/>
    <path data-name="패스 11" d="M15.153 18.621H8.936a.686.686 0 1 1 0-1.371h6.217a.686.686 0 1 1 0 1.371z" transform="translate(-4.201 -5.547)" style="fill:#fff"/>
</svg>
