<svg xmlns="http://www.w3.org/2000/svg" width="40" height="40" viewBox="0 0 40 40">
    <g data-name="패스 1" style="fill:none;stroke-linecap:round;stroke-linejoin:round">
        <path d="M42 22A20 20 0 1 1 22 2a20.007 20.007 0 0 1 20 20z" style="stroke:none" transform="translate(-2 -2)"/>
        <path d="M22 4A17.88 17.88 0 0 0 9.274 9.274 17.88 17.88 0 0 0 4 22a17.88 17.88 0 0 0 5.274 12.726A17.88 17.88 0 0 0 22 40a17.88 17.88 0 0 0 12.726-5.274A17.88 17.88 0 0 0 40 22a17.88 17.88 0 0 0-5.274-12.726A17.88 17.88 0 0 0 22 4m0-2c11.04 0 20 8.96 20 20s-8.96 20-20 20S2 33.04 2 22 10.96 2 22 2z" style="fill:#fff;stroke:none" transform="translate(-2 -2)"/>
    </g>
    <path data-name="패스 3" d="M22 12v12.308l9.2 5.4" style="stroke:#fff;stroke-width:2px;fill:none;stroke-linecap:round;stroke-linejoin:round" transform="translate(-2 -2)"/>
</svg>
