<svg xmlns="http://www.w3.org/2000/svg" width="22" height="22" viewBox="0 0 22 22">
    <g data-name="합치기 1" style="fill:#ff1c53">
        <path d="M-2739.206-7068.672a1.468 1.468 0 0 1-1.037-2.501l7.645-7.645.354-.353-.354-.354-7.645-7.644a1.468 1.468 0 0 1 1.037-2.503c.392 0 .76.153 1.038.43l7.643 7.644.354.354.353-.354 7.645-7.644c.277-.277.645-.43 1.036-.43s.76.153 1.037.43a1.468 1.468 0 0 1 0 2.073l-7.644 7.645-.354.353.354.354 7.644 7.644c.276.277.429.645.429 1.036 0 .392-.153.76-.43 1.035-.277.277-.645.43-1.036.43s-.759-.153-1.036-.43l-7.644-7.643-.354-.353-.353.353-7.645 7.645a1.462 1.462 0 0 1-1.037.428z" style="stroke:none" transform="translate(2741.172 7090.172)"/>
        <path d="M-2739.206-7069.172c.258 0 .502-.1.684-.282l8.351-8.351 8.352 8.35a.958.958 0 0 0 .682.283c.258 0 .5-.1.684-.284a.96.96 0 0 0 0-1.364l-8.352-8.35 8.351-8.352a.967.967 0 0 0-.683-1.65c-.258 0-.5.1-.682.283l-8.352 8.352-8.351-8.351a.96.96 0 0 0-.684-.284.968.968 0 0 0-.684 1.65l8.353 8.35-8.352 8.352a.965.965 0 0 0 .683 1.648m0 1a1.966 1.966 0 0 1-1.39-3.355l7.645-7.644-7.646-7.644a1.968 1.968 0 0 1 2.782-2.78l7.644 7.644 7.645-7.645a1.965 1.965 0 1 1 2.78 2.78l-7.645 7.645 7.644 7.644a1.965 1.965 0 0 1-2.78 2.779l-7.644-7.643-7.644 7.644a1.966 1.966 0 0 1-1.391.575z" style="fill:#000;stroke:none" transform="translate(2741.172 7090.172)"/>
    </g>
</svg>
