<svg 
 xmlns="http://www.w3.org/2000/svg"
 xmlns:xlink="http://www.w3.org/1999/xlink"
 width="28px" height="14px">
<path fill-rule="evenodd"  fill="rgb(255, 255, 255)"
 d="M21.894,13.753 L17.196,13.753 C13.859,13.753 11.170,11.31 11.170,7.726 L11.170,5.782 C11.170,5.231 11.591,4.810 12.142,4.810 C12.693,4.810 13.114,5.231 13.114,5.782 L13.114,7.726 C13.114,9.994 14.961,11.809 17.196,11.809 L21.894,11.809 C24.162,11.809 25.977,9.962 25.977,7.726 L25.977,6.430 C25.977,4.162 24.130,2.348 21.894,2.348 L17.844,2.348 C17.293,2.348 16.872,1.927 16.872,1.376 C16.872,0.825 17.293,0.404 17.844,0.404 L21.894,0.404 C25.232,0.404 27.921,3.125 27.921,6.430 L27.921,7.726 C27.921,11.63 25.199,13.753 21.894,13.753 ZM17.553,8.374 C17.553,8.925 17.131,9.346 16.581,9.346 C16.30,9.346 15.609,8.925 15.609,8.374 L15.609,6.430 C15.609,4.162 13.762,2.348 11.526,2.348 L6.180,2.348 C3.912,2.348 2.98,4.195 2.98,6.430 L2.98,7.726 C2.98,9.994 3.945,11.809 6.180,11.809 L10.878,11.809 C11.397,11.809 11.850,12.230 11.850,12.781 C11.850,13.331 11.429,13.753 10.878,13.753 L6.180,13.753 C2.843,13.753 0.154,11.31 0.154,7.726 L0.154,6.430 C0.154,3.93 2.875,0.404 6.180,0.404 L11.526,0.404 C14.863,0.404 17.553,3.125 17.553,6.430 L17.553,8.374 Z"/>
</svg>