<svg 
 xmlns="http://www.w3.org/2000/svg"
 xmlns:xlink="http://www.w3.org/1999/xlink"
 width="10px" height="16px">
<path fill-rule="evenodd"  fill="rgb(248, 226, 116)"
 d="M9.88,6.865 C9.52,6.828 9.11,6.800 8.971,6.769 L2.592,0.390 C2.114,0.87 1.338,0.87 0.860,0.390 C0.382,0.868 0.382,1.644 0.860,2.122 L6.479,7.742 L0.860,13.361 C0.382,13.839 0.382,14.615 0.860,15.93 C1.338,15.572 2.114,15.572 2.592,15.93 L8.971,8.715 C9.11,8.684 9.52,8.655 9.88,8.619 C9.330,8.377 9.449,8.59 9.446,7.742 C9.449,7.425 9.330,7.107 9.88,6.865 Z"/>
</svg>